# xmcd CD database file
#
# Track frame offsets:
#	150
#	16521
#	34955
#	52238
#	71652
#	91215
#	108444
#	129701
#	148003
#	168083
#	185463
#
# Disc length: 2767 seconds
#
# Revision: 0
# Processed by: cddbd v1.5.2PL0 Copyright (c) Steve Scherf et al.
# Submitted via: CDex 1.51
#
DISCID=950acd0b
DTITLE=Rascal Flatts - Unstoppable
DYEAR=2009
DGENRE=Country
TTITLE0=Love Who You Love
TTITLE1=Here Comes Goodbye
TTITLE2=Close
TTITLE3=Forever
TTITLE4=She'd Be California
TTITLE5=Unstoppable
TTITLE6=Things That Matter
TTITLE7=Summer Nights
TTITLE8=Holdin' On
TTITLE9=Once
TTITLE10=Why
EXTD=YEAR: 2009
EXTT0=
EXTT1=
EXTT2=
EXTT3=
EXTT4=
EXTT5=
EXTT6=
EXTT7=
EXTT8=
EXTT9=
EXTT10=
PLAYORDER=
